<?xml version="1.0" standalone="no"?><!DOCTYPE svg PUBLIC "-//W3C//DTD SVG 1.1//EN" "http://www.w3.org/Graphics/SVG/1.1/DTD/svg11.dtd"><svg t="1638600612516" class="icon" viewBox="0 0 1024 1024" version="1.1" xmlns="http://www.w3.org/2000/svg" p-id="2611" xmlns:xlink="http://www.w3.org/1999/xlink" width="48" height="48"><defs><style type="text/css"></style></defs><path d="M512 426.666667c-239.253333 0-426.666667-84.330667-426.666667-192s187.413333-192 426.666667-192 426.666667 84.330667 426.666667 192S751.253333 426.666667 512 426.666667zM512 85.333333C330.368 85.333333 128 146.666667 128 234.666667s202.368 149.333333 384 149.333333 384-61.333333 384-149.333333S693.632 85.333333 512 85.333333z" p-id="2612"></path><path d="M512 597.333333c-239.253333 0-426.666667-84.330667-426.666667-192l0-170.666667c0-11.797333 9.536-21.333333 21.333333-21.333333s21.333333 9.536 21.333333 21.333333l0 170.666667c0 88 202.368 149.333333 384 149.333333s384-61.333333 384-149.333333l0-170.666667c0-11.797333 9.536-21.333333 21.333333-21.333333s21.333333 9.536 21.333333 21.333333l0 170.666667C938.666667 513.002667 751.253333 597.333333 512 597.333333z" p-id="2613"></path><path d="M512 789.333333c-239.253333 0-426.666667-84.330667-426.666667-192l0-192c0-11.797333 9.536-21.333333 21.333333-21.333333s21.333333 9.536 21.333333 21.333333l0 192c0 88 202.368 149.333333 384 149.333333s384-61.333333 384-149.333333l0-192c0-11.797333 9.536-21.333333 21.333333-21.333333s21.333333 9.536 21.333333 21.333333l0 192C938.666667 705.002667 751.253333 789.333333 512 789.333333z" p-id="2614"></path><path d="M512 981.333333c-239.253333 0-426.666667-84.330667-426.666667-192l0-192c0-11.797333 9.536-21.333333 21.333333-21.333333s21.333333 9.536 21.333333 21.333333l0 192c0 88 202.368 149.333333 384 149.333333s384-61.333333 384-149.333333l0-192c0-11.797333 9.536-21.333333 21.333333-21.333333s21.333333 9.536 21.333333 21.333333l0 192C938.666667 897.002667 751.253333 981.333333 512 981.333333z" p-id="2615"></path></svg>