<?xml version="1.0" standalone="no"?><!DOCTYPE svg PUBLIC "-//W3C//DTD SVG 1.1//EN" "http://www.w3.org/Graphics/SVG/1.1/DTD/svg11.dtd"><svg t="1638600016294" class="icon" viewBox="0 0 1024 1024" version="1.1" xmlns="http://www.w3.org/2000/svg" p-id="6979" width="48" height="48" xmlns:xlink="http://www.w3.org/1999/xlink"><defs><style type="text/css"></style></defs><path d="M970.666667 170.666667H468.62l-35.673333-59.46a53.593333 53.593333 0 0 0-45.733334-25.873334H96a53.393333 53.393333 0 0 0-53.333333 53.333334v704a53.393333 53.393333 0 0 0 53.333333 53.333333h874.666667a53.393333 53.393333 0 0 0 53.333333-53.333333V224a53.393333 53.393333 0 0 0-53.333333-53.333333z m0 42.666666a10.666667 10.666667 0 0 1 10.666666 10.666667v75.74a53.546667 53.546667 0 0 0-10.666666-1.073333H551.453333a10.72 10.72 0 0 1-9.146666-5.18L494.213333 213.333333z m10.666666 629.333334a10.666667 10.666667 0 0 1-10.666666 10.666666H96a10.666667 10.666667 0 0 1-10.666667-10.666666V138.666667a10.666667 10.666667 0 0 1 10.666667-10.666667h291.213333a10.72 10.72 0 0 1 9.146667 5.18l109.333333 182.26A53.593333 53.593333 0 0 0 551.453333 341.333333H970.666667a10.666667 10.666667 0 0 1 10.666666 10.666667z" fill="#5C5C66" p-id="6980"></path></svg>