<?xml version="1.0" standalone="no"?><!DOCTYPE svg PUBLIC "-//W3C//DTD SVG 1.1//EN" "http://www.w3.org/Graphics/SVG/1.1/DTD/svg11.dtd"><svg t="1638608446376" class="icon" viewBox="0 0 1024 1024" version="1.1" xmlns="http://www.w3.org/2000/svg" p-id="1309" xmlns:xlink="http://www.w3.org/1999/xlink" width="48" height="48"><defs><style type="text/css"></style></defs><path d="M1006.933333 580.266667h-341.333333c-10.24 0-17.066667-6.826667-17.066667-17.066667v-341.333333c0-10.24 6.826667-17.066667 17.066667-17.066667h341.333333c10.24 0 17.066667 6.826667 17.066667 17.066667v341.333333c0 10.24-6.826667 17.066667-17.066667 17.066667zM682.666667 546.133333h307.2V238.933333h-307.2v307.2zM358.4 375.466667H17.066667c-10.24 0-17.066667-6.826667-17.066667-17.066667V17.066667C0 6.826667 6.826667 0 17.066667 0h341.333333c10.24 0 17.066667 6.826667 17.066667 17.066667v341.333333c0 10.24-6.826667 17.066667-17.066667 17.066667zM34.133333 341.333333h307.2V34.133333H34.133333v307.2zM358.4 1024H17.066667c-10.24 0-17.066667-6.826667-17.066667-17.066667v-341.333333c0-10.24 6.826667-17.066667 17.066667-17.066667h341.333333c10.24 0 17.066667 6.826667 17.066667 17.066667v341.333333c0 10.24-6.826667 17.066667-17.066667 17.066667zM34.133333 989.866667h307.2v-307.2H34.133333v307.2z" fill="" p-id="1310"></path><path d="M187.733333 580.266667c-10.24 0-17.066667-6.826667-17.066666-17.066667v-204.8c0-10.24 6.826667-17.066667 17.066666-17.066667s17.066667 6.826667 17.066667 17.066667v204.8c0 10.24-6.826667 17.066667-17.066667 17.066667zM665.6 853.333333h-238.933333c-6.826667 0-13.653333-3.413333-17.066667-10.24s0-13.653333 3.413333-17.066666l102.4-102.4c6.826667-6.826667 17.066667-6.826667 23.893334 0s6.826667 17.066667 0 23.893333L467.626667 819.2h197.973333c85.333333 0 153.6-68.266667 153.6-153.6V580.266667c0-10.24 6.826667-17.066667 17.066667-17.066667s17.066667 6.826667 17.066666 17.066667v85.333333c0 102.4-85.333333 187.733333-187.733333 187.733333z" fill="" p-id="1311"></path><path d="M529.066667 921.6c-3.413333 0-6.826667 0-10.24-3.413333l-102.4-68.266667c-6.826667-6.826667-10.24-17.066667-3.413334-23.893333 6.826667-6.826667 17.066667-10.24 23.893334-3.413334l102.4 68.266667c6.826667 6.826667 10.24 17.066667 3.413333 23.893333-3.413333 3.413333-6.826667 6.826667-13.653333 6.826667zM187.733333 580.266667c-3.413333 0-10.24 0-13.653333-3.413334l-102.4-102.4c-6.826667-6.826667-6.826667-17.066667 0-23.893333s17.066667-6.826667 23.893333 0l88.746667 88.746667L273.066667 450.56c6.826667-6.826667 17.066667-6.826667 23.893333 0s6.826667 17.066667 0 23.893333l-102.4 102.4c3.413333 3.413333-3.413333 3.413333-6.826667 3.413334z" fill="" p-id="1312"></path></svg>