<?xml version="1.0" standalone="no"?><!DOCTYPE svg PUBLIC "-//W3C//DTD SVG 1.1//EN" "http://www.w3.org/Graphics/SVG/1.1/DTD/svg11.dtd"><svg t="1638601700546" class="icon" viewBox="0 0 1024 1024" version="1.1" xmlns="http://www.w3.org/2000/svg" p-id="31874" xmlns:xlink="http://www.w3.org/1999/xlink" width="48" height="48"><defs><style type="text/css"></style></defs><path d="M554.666667 874.666667a21.333333 21.333333 0 1 1-21.333334-21.333334 21.333333 21.333333 0 0 1 21.333334 21.333334z m0-149.333334V637.84a74.9 74.9 0 0 1 23.44-54.32c18.306667-17.26 36.286667-33.04 53.673333-48.306667 36-31.6 70-61.446667 94.566667-94.38C754.766667 402.74 768 364.34 768 320a234.666667 234.666667 0 1 0-469.333333 0 21.333333 21.333333 0 0 0 42.666666 0c0-105.866667 86.133333-192 192-192s192 86.133333 192 192c0 76.32-51.046667 121.126667-121.7 183.146667C586 518.666667 567.7 534.666667 548.84 552.466667A117.76 117.76 0 0 0 512 637.84V725.333333a21.333333 21.333333 0 0 0 42.666667 0z" fill="#5C5C66" p-id="31875"></path></svg>