<?xml version="1.0" standalone="no"?><!DOCTYPE svg PUBLIC "-//W3C//DTD SVG 1.1//EN" "http://www.w3.org/Graphics/SVG/1.1/DTD/svg11.dtd"><svg t="1638608497310" class="icon" viewBox="0 0 1024 1024" version="1.1" xmlns="http://www.w3.org/2000/svg" p-id="5712" xmlns:xlink="http://www.w3.org/1999/xlink" width="48" height="48"><defs><style type="text/css"></style></defs><path d="M989.866667 512H34.133333c-10.24 0-17.066667-6.826667-17.066666-17.066667v-136.533333C17.066667 310.613333 54.613333 273.066667 102.4 273.066667h819.2c47.786667 0 85.333333 37.546667 85.333333 85.333333v136.533333c0 10.24-6.826667 17.066667-17.066666 17.066667zM51.2 477.866667h921.6v-119.466667c0-27.306667-23.893333-51.2-51.2-51.2H102.4c-27.306667 0-51.2 23.893333-51.2 51.2V477.866667z" fill="" p-id="5713"></path><path d="M887.466667 989.866667H136.533333c-47.786667 0-85.333333-37.546667-85.333333-85.333334v-409.6c0-10.24 6.826667-17.066667 17.066667-17.066666h887.466666c10.24 0 17.066667 6.826667 17.066667 17.066666v409.6c0 47.786667-37.546667 85.333333-85.333333 85.333334zM85.333333 512v392.533333c0 27.306667 23.893333 51.2 51.2 51.2h750.933334c27.306667 0 51.2-23.893333 51.2-51.2V512h-853.333334zM512 307.2c-102.4 0-191.146667-78.506667-218.453333-191.146667-6.826667-23.893333 0-51.2 20.48-68.266666 13.653333-13.653333 34.133333-17.066667 54.613333-13.653334 95.573333 34.133333 163.84 136.533333 163.84 252.586667-3.413333 13.653333-10.24 20.48-20.48 20.48z m-163.84-238.933333c-6.826667 0-10.24 3.413333-13.653333 6.826666-6.826667 6.826667-13.653333 20.48-10.24 34.133334 23.893333 88.746667 92.16 153.6 167.253333 163.84-6.826667-95.573333-61.44-177.493333-139.946667-201.386667 0-3.413333 0-3.413333-3.413333-3.413333z" fill="" p-id="5714"></path><path d="M512 307.2c-10.24 0-17.066667-6.826667-17.066667-17.066667 0-116.053333 68.266667-218.453333 163.84-252.586666 17.066667-6.826667 37.546667-3.413333 54.613334 13.653333s27.306667 44.373333 20.48 68.266667C703.146667 228.693333 614.4 307.2 512 307.2z m163.84-238.933333h-6.826667c-78.506667 27.306667-133.12 109.226667-139.946666 201.386666 78.506667-10.24 146.773333-71.68 167.253333-163.84 3.413333-17.066667-3.413333-27.306667-10.24-34.133333 0 0-3.413333-3.413333-10.24-3.413333z" fill="" p-id="5715"></path><path d="M512 972.8c-10.24 0-17.066667-6.826667-17.066667-17.066667V310.613333l-109.226666 95.573334c-6.826667 6.826667-17.066667 6.826667-23.893334 0s-6.826667-17.066667 0-23.893334l136.533334-119.466666c3.413333-3.413333 13.653333-6.826667 17.066666-3.413334 6.826667 3.413333 10.24 10.24 10.24 17.066667v682.666667c3.413333 3.413333-3.413333 13.653333-13.653333 13.653333z" fill="" p-id="5716"></path><path d="M648.533333 409.6c-3.413333 0-6.826667 0-10.24-3.413333l-136.533333-119.466667c-6.826667-6.826667-6.826667-17.066667 0-23.893333s17.066667-6.826667 23.893333 0l136.533334 119.466666c6.826667 6.826667 6.826667 17.066667 0 23.893334-3.413333 0-10.24 3.413333-13.653334 3.413333z" fill="" p-id="5717"></path></svg>