<?xml version="1.0" standalone="no"?><!DOCTYPE svg PUBLIC "-//W3C//DTD SVG 1.1//EN" "http://www.w3.org/Graphics/SVG/1.1/DTD/svg11.dtd"><svg t="1638946852010" class="icon" viewBox="0 0 1024 1024" version="1.1" xmlns="http://www.w3.org/2000/svg" p-id="6379" xmlns:xlink="http://www.w3.org/1999/xlink" width="16" height="16"><defs><style type="text/css"></style></defs><path d="M981.162667 366.933333H921.6v-106.973866a46.677333 46.677333 0 0 0-46.626133-46.626134H452.522667l-85.333334-119.466666H46.626133A46.6944 46.6944 0 0 0 0 140.4928v745.591467h0.1024c-0.085333 9.608533 2.901333 19.012267 8.9088 26.88A43.451733 43.451733 0 0 0 43.776 930.133333h763.886933c19.729067 0 37.102933-13.294933 41.813334-30.941866L1024 420.676267v-3.0208c0-29.3888-18.0224-50.722133-42.837333-50.722134zM34.133333 140.4928c0-6.894933 5.614933-12.4928 12.4928-12.4928h302.984534l85.333333 119.466667h440.0128c6.894933 0 12.4928 5.597867 12.4928 12.4928V366.933333H217.275733c-2.4576 0-4.898133 0.2048-7.2704 0.6144-16.605867 2.781867-30.4128 14.8992-34.525866 30.3104L34.133333 783.342933V140.4928z m782.830934 748.3904a9.659733 9.659733 0 0 1-9.301334 7.1168H43.776a9.4208 9.4208 0 0 1-7.645867-3.7888c-1.0752-1.399467-2.730667-4.369067-2.0992-6.9632l173.9264-477.064533a9.659733 9.659733 0 0 1 9.301334-7.1168H981.162667c6.485333 0 8.1408 9.3184 8.567466 13.9776L816.964267 888.8832z" fill="" p-id="6380"></path></svg>